<svg width="600" height="600" viewBox="0 0 600 600" fill="none" xmlns="http://www.w3.org/2000/svg">
    <g clip-path="url(#clip0_1_7)">
        <path d="M493 390.038C493 375.655 480.435 364.501 466.153 366.208L125.627 406.894C115.571 408.095 108 416.625 108 426.753V470.5C108 481.546 116.954 490.5 128 490.5H473C484.046 490.5 493 481.546 493 470.5V390.038Z" fill="#FFE566"/>
        <path d="M304.607 107.569C308.188 106.065 312.275 106.386 315.576 108.432L543.674 249.76C554.368 256.386 548.955 272.91 536.413 271.924L60.9347 234.543C48.3924 233.557 45.6279 216.39 57.2265 211.517L304.607 107.569Z" fill="#FFD23A"/>
        <path d="M108.5 282.119C108.5 270.646 118.132 261.525 129.588 262.149L473.588 280.891C484.195 281.469 492.5 290.239 492.5 300.862V329.109C492.5 339.397 484.696 348.006 474.457 349.013L130.457 382.841C118.695 383.997 108.5 374.756 108.5 362.937V282.119Z" fill="#161616"/>
    </g>
    <defs>
        <clipPath id="clip0_1_7">
            <rect width="600" height="600" fill="white"/>
        </clipPath>
    </defs>
</svg>
